<?xml version="1.0" standalone="no"?><svg xmlns="http://www.w3.org/2000/svg" viewBox="0 0 1440 320"><path fill="#a384ff" fill-opacity="1" d="M0,160L40,154.7C80,149,160,139,240,160C320,181,400,235,480,229.3C560,224,640,160,720,160C800,160,880,224,960,218.7C1040,213,1120,139,1200,117.3C1280,96,1360,128,1400,144L1440,160L1440,320L1400,320C1360,320,1280,320,1200,320C1120,320,1040,320,960,320C880,320,800,320,720,320C640,320,560,320,480,320C400,320,320,320,240,320C160,320,80,320,40,320L0,320Z"></path></svg>